<svg width="22" height="22" viewBox="0 0 22 22" fill="none" xmlns="http://www.w3.org/2000/svg">
<path d="M11 12.2L15.05 16.25L16.25 15.05L12.2 11L16.25 6.95L15.05 5.75L11 9.8L6.95 5.75L5.75 6.95L9.8 11L5.75 15.05L6.95 16.25L11 12.2Z" fill="#7A7A7A"/>
<path fill-rule="evenodd" clip-rule="evenodd" d="M0.5 11C0.5 5.15 5.15 0.5 11 0.5C16.85 0.5 21.5 5.15 21.5 11C21.5 16.85 16.85 21.5 11 21.5C5.15 21.5 0.5 16.85 0.5 11ZM2 11C2 15.95 6.05 20 11 20C15.95 20 20 15.95 20 11C20 6.05 15.95 2 11 2C6.05 2 2 6.05 2 11Z" fill="#7A7A7A"/>
</svg>
