<svg width="20" height="21" viewBox="0 0 20 21" fill="none" xmlns="http://www.w3.org/2000/svg">
<path d="M9.99984 2.01025C6.77484 2.01025 4.1665 4.61859 4.1665 7.84359C4.1665 12.2186 9.99984 18.6769 9.99984 18.6769C9.99984 18.6769 15.8332 12.2186 15.8332 7.84359C15.8332 4.61859 13.2248 2.01025 9.99984 2.01025ZM5.83317 7.84359C5.83317 5.54359 7.69984 3.67692 9.99984 3.67692C12.2998 3.67692 14.1665 5.54359 14.1665 7.84359C14.1665 10.2436 11.7665 13.8353 9.99984 16.0769C8.2665 13.8519 5.83317 10.2186 5.83317 7.84359Z" fill="#FA8C16"/>
<path d="M9.99984 9.92692C11.1504 9.92692 12.0832 8.99418 12.0832 7.84359C12.0832 6.69299 11.1504 5.76025 9.99984 5.76025C8.84924 5.76025 7.9165 6.69299 7.9165 7.84359C7.9165 8.99418 8.84924 9.92692 9.99984 9.92692Z" fill="#FA8C16"/>
</svg>
