<svg width="11" height="13" viewBox="0 0 11 13" fill="none" xmlns="http://www.w3.org/2000/svg">
<path d="M9.49922 5.69961H8.69922V3.29961C8.69922 1.53961 7.25922 0.0996094 5.49922 0.0996094C3.73922 0.0996094 2.29922 1.53961 2.29922 3.29961V5.69961H1.49922C1.09922 5.69961 0.699219 6.09961 0.699219 6.49961V12.0996C0.699219 12.4996 1.09922 12.8996 1.49922 12.8996H9.49922C9.89922 12.8996 10.2992 12.4996 10.2992 12.0996V6.49961C10.2992 6.09961 9.89922 5.69961 9.49922 5.69961ZM6.29922 11.2996H4.69922L5.01922 9.53961C4.61922 9.37961 4.29922 8.89961 4.29922 8.49961C4.29922 7.85961 4.85922 7.29961 5.49922 7.29961C6.13922 7.29961 6.69922 7.85961 6.69922 8.49961C6.69922 8.97961 6.45922 9.37961 5.97922 9.53961L6.29922 11.2996ZM7.09922 5.69961H3.89922V3.29961C3.89922 2.41961 4.61922 1.69961 5.49922 1.69961C6.37922 1.69961 7.09922 2.41961 7.09922 3.29961V5.69961Z" fill="#646464"/>
</svg>
