<svg width="48" height="48" viewBox="0 0 48 48" fill="none" xmlns="http://www.w3.org/2000/svg">
<path d="M0.625 24.6254V46.5004C0.625 46.7325 0.717188 46.955 0.881282 47.1191C1.04538 47.2832 1.26794 47.3754 1.5 47.3754H46.5C46.7321 47.3754 46.9546 47.2832 47.1187 47.1191C47.2828 46.955 47.375 46.7325 47.375 46.5004C47.375 46.2683 47.2828 46.0458 47.1187 45.8817C46.9546 45.7176 46.7321 45.6254 46.5 45.6254H41.912V30.1754H46.5C46.732 30.1753 46.9545 30.0831 47.1186 29.919C47.2826 29.7549 47.3749 29.5324 47.375 29.3004V25.8974C47.375 25.6654 47.2828 25.4428 47.1187 25.2787C46.9546 25.1146 46.7321 25.0224 46.5 25.0224H45.3775V20.2404H46.5C46.7321 20.2404 46.9546 20.1482 47.1187 19.9841C47.2828 19.82 47.375 19.5975 47.375 19.3654V15.9624C47.375 15.7304 47.2828 15.5078 47.1187 15.3437C46.9546 15.1796 46.7321 15.0874 46.5 15.0874H45.3775V8.72343C45.3775 8.51654 45.3042 8.31636 45.1705 8.15844C45.0369 8.00053 44.8515 7.89511 44.6475 7.86093L1.6475 0.637429C1.5219 0.616037 1.39315 0.622316 1.27023 0.655826C1.1473 0.689337 1.03318 0.749272 0.935814 0.831448C0.83845 0.913624 0.760195 1.01606 0.706512 1.13161C0.652828 1.24715 0.62501 1.37302 0.625 1.50043V6.30043C0.624886 6.50211 0.694522 6.69762 0.822104 6.85381C0.949685 7.01001 1.12736 7.11728 1.325 7.15743L2.634 7.42343L2.7185 23.7504H1.5C1.26794 23.7504 1.04538 23.8426 0.881282 24.0067C0.717188 24.1708 0.625 24.3934 0.625 24.6254V24.6254ZM10.409 45.6254H6.978V35.0934H10.409V45.6254ZM15.643 45.6254H12.159V35.0934H15.643V45.6254ZM20.8235 45.6254H17.393V35.0934H20.8235V45.6254ZM45.6235 16.8374V18.4904H17.8435C17.6115 18.4906 17.389 18.5828 17.2249 18.7469C17.0609 18.9109 16.9686 19.1334 16.9685 19.3654V25.8974C16.9685 26.1295 17.0607 26.352 17.2248 26.5161C17.3889 26.6802 17.6114 26.7724 17.8435 26.7724H45.625V28.4259H13.875V16.8374H45.6235ZM43.6235 20.2409V25.0224H37.6345V20.2409H43.6235ZM35.8805 20.2409V25.0224H26.4615V20.2409H35.8805ZM24.7075 20.2409V25.0224H18.7185V20.2404L24.7075 20.2409ZM2.375 25.5004H8.7C8.93207 25.5004 9.15462 25.4082 9.31872 25.2441C9.48281 25.08 9.575 24.8575 9.575 24.6254V7.76193C9.55339 7.56679 9.47581 7.38207 9.35161 7.23001C9.22741 7.07796 9.06189 6.96506 8.875 6.90493L3.6805 5.85043L2.376 5.58543V2.53543L43.6285 9.46493V15.0854H13C12.7676 15.086 12.5448 15.1785 12.3805 15.3429C12.2161 15.5072 12.1235 15.73 12.123 15.9624V29.3004C12.123 29.4155 12.1457 29.5295 12.1898 29.6358C12.2339 29.7421 12.2985 29.8387 12.38 29.92C12.4614 30.0013 12.5581 30.0658 12.6645 30.1097C12.7709 30.1536 12.8849 30.1761 13 30.1759H40.162V45.6259H22.5735V34.2184C22.5735 33.9864 22.4813 33.7638 22.3172 33.5997C22.1531 33.4356 21.9306 33.3434 21.6985 33.3434H6.103C5.87094 33.3434 5.64838 33.4356 5.48428 33.5997C5.32019 33.7638 5.228 33.9864 5.228 34.2184V45.6254H2.375V25.5004ZM4.387 7.77893L7.825 8.47893V23.7504H4.4685L4.387 7.77893Z" fill="#FA8C16"/>
<path d="M37.1462 40.1278C37.3783 40.1278 37.6008 40.0356 37.7649 39.8715C37.929 39.7074 38.0212 39.4848 38.0212 39.2528V34.2188C38.0212 33.9867 37.929 33.7641 37.7649 33.6C37.6008 33.4359 37.3783 33.3438 37.1462 33.3438H26.0332C25.8011 33.3438 25.5786 33.4359 25.4145 33.6C25.2504 33.7641 25.1582 33.9867 25.1582 34.2188V39.2508C25.1582 39.4828 25.2504 39.7054 25.4145 39.8695C25.5786 40.0336 25.8011 40.1258 26.0332 40.1258L37.1462 40.1278ZM26.9082 35.0938H36.2712V38.3778H26.9082V35.0938Z" fill="#FA8C16"/>
</svg>
