<svg width="20" height="21" viewBox="0 0 20 21" fill="none" xmlns="http://www.w3.org/2000/svg">
<g clip-path="url(#clip0_45_393)">
<path fill-rule="evenodd" clip-rule="evenodd" d="M11.6973 2.03825C13.385 2.37395 14.9352 3.20256 16.152 4.4193C16.9599 5.22719 17.6007 6.18629 18.0379 7.24185C18.4752 8.29741 18.7002 9.42874 18.7002 10.5713C18.7002 11.7138 18.4752 12.8451 18.0379 13.9007C17.6007 14.9562 16.9599 15.9153 16.152 16.7232C14.9352 17.94 13.385 18.7686 11.6973 19.1043C10.0097 19.44 8.26034 19.2677 6.67058 18.6092C5.08083 17.9507 3.72204 16.8356 2.76606 15.4048C1.81007 13.9741 1.29981 12.292 1.29981 10.5713C1.29981 8.85053 1.81007 7.16844 2.76606 5.7377C3.72205 4.30696 5.08083 3.19183 6.67058 2.53334C8.26034 1.87484 10.0097 1.70255 11.6973 2.03825ZM3.17359 11.9291C3.44214 13.2793 4.10504 14.5194 5.07843 15.4928C6.38371 16.7981 8.15406 17.5314 10 17.5314C11.846 17.5314 13.6163 16.7981 14.9216 15.4928C15.895 14.5194 16.5579 13.2793 16.8264 11.9291C17.095 10.579 16.9571 9.17954 16.4303 7.90773C15.9035 6.63593 15.0114 5.5489 13.8669 4.78411C12.7223 4.01932 11.3766 3.61111 10 3.61111C8.62341 3.61111 7.27774 4.01932 6.13315 4.78411C4.98856 5.5489 4.09646 6.63593 3.56966 7.90773C3.04286 9.17953 2.90503 10.579 3.17359 11.9291ZM13.2688 10.2365C13.3126 10.3427 13.3348 10.4565 13.3344 10.5714C13.3348 10.6862 13.3126 10.8 13.2688 10.9062C13.2251 11.0124 13.1608 11.1089 13.0796 11.1901C12.9983 11.2713 12.9018 11.3357 12.7956 11.3794C12.6894 11.4231 12.5756 11.4454 12.4608 11.4449L10.8674 11.4388L10.8736 13.0322C10.8741 13.147 10.8518 13.2608 10.808 13.367C10.7643 13.4732 10.7 13.5697 10.6188 13.6509C10.5376 13.7321 10.4411 13.7965 10.3349 13.8402C10.2287 13.8839 10.1149 13.9062 10 13.9057C9.88515 13.9062 9.77134 13.8839 9.66514 13.8402C9.55894 13.7965 9.46245 13.7321 9.38124 13.6509C9.30002 13.5697 9.23569 13.4732 9.19196 13.367C9.14823 13.2608 9.12595 13.147 9.12642 13.0322L9.13257 11.4388L7.53921 11.4449C7.42436 11.4454 7.31055 11.4231 7.20435 11.3794C7.09815 11.3357 7.00166 11.2713 6.92045 11.1901C6.83924 11.1089 6.77491 11.0124 6.73117 10.9062C6.68744 10.8 6.66516 10.6862 6.66564 10.5714C6.66516 10.4565 6.68744 10.3427 6.73117 10.2365C6.77491 10.1303 6.83924 10.0338 6.92045 9.9526C7.00166 9.87139 7.09815 9.80706 7.20435 9.76332C7.31055 9.71959 7.42436 9.69731 7.53921 9.69779L9.13257 9.70394L9.12642 8.11058C9.12642 7.87889 9.21846 7.65669 9.38229 7.49286C9.54611 7.32904 9.76831 7.237 10 7.237C10.2317 7.237 10.4539 7.32904 10.6177 7.49287C10.7815 7.65669 10.8736 7.87889 10.8736 8.11058L10.8674 9.70394L12.4608 9.69779C12.5756 9.69731 12.6894 9.71959 12.7956 9.76332C12.9018 9.80706 12.9983 9.87139 13.0796 9.9526C13.1608 10.0338 13.2251 10.1303 13.2688 10.2365Z" fill="white"/>
</g>
<defs>
<clipPath id="clip0_45_393">
<rect width="20" height="20" fill="white" transform="translate(0 0.375244)"/>
</clipPath>
</defs>
</svg>
