<svg width="48" height="48" viewBox="0 0 48 48" fill="none" xmlns="http://www.w3.org/2000/svg">
<path d="M36.8498 19.0246L28.5128 17.8126L24.7843 10.2586C24.7121 10.1121 24.6004 9.98875 24.4617 9.90249C24.3231 9.81623 24.1631 9.77051 23.9998 9.77051C23.8365 9.77051 23.6764 9.81623 23.5378 9.90249C23.3992 9.98875 23.2874 10.1121 23.2153 10.2586L19.4868 17.8126L11.1498 19.0246C10.9882 19.048 10.8364 19.1161 10.7115 19.2213C10.5866 19.3264 10.4937 19.4645 10.4432 19.6198C10.3928 19.775 10.3868 19.9413 10.4259 20.0998C10.4651 20.2583 10.5478 20.4027 10.6648 20.5166L16.6998 26.4001L15.2733 34.7001C15.2457 34.861 15.2636 35.0264 15.3251 35.1777C15.3866 35.3289 15.4892 35.4599 15.6213 35.5559C15.7534 35.6519 15.9097 35.709 16.0725 35.7208C16.2354 35.7326 16.3982 35.6986 16.5428 35.6226L23.9998 31.7031L31.4568 35.6231C31.6013 35.6991 31.7643 35.7331 31.9272 35.7213C32.0901 35.7095 32.2464 35.6524 32.3785 35.5563C32.5106 35.4603 32.6132 35.3292 32.6747 35.1779C32.7361 35.0265 32.754 34.861 32.7263 34.7001L31.3023 26.4001L37.3348 20.5166C37.4517 20.4027 37.5345 20.2583 37.5736 20.0998C37.6128 19.9413 37.6068 19.775 37.5563 19.6198C37.5058 19.4645 37.4129 19.3264 37.288 19.2213C37.1632 19.1161 37.0114 19.048 36.8498 19.0246V19.0246ZM29.7498 25.4656C29.6485 25.5647 29.5727 25.6869 29.5292 25.8217C29.4856 25.9566 29.4755 26.1 29.4998 26.2396L30.6998 33.2501L24.4068 29.9401C24.2812 29.8741 24.1414 29.8396 23.9995 29.8396C23.8576 29.8396 23.7179 29.8741 23.5923 29.9401L17.2998 33.2501L18.4998 26.2396C18.524 26.1 18.5139 25.9566 18.4704 25.8217C18.4268 25.6869 18.3511 25.5647 18.2498 25.4656L13.1558 20.5001L20.1933 19.4771C20.3336 19.457 20.4669 19.4031 20.5817 19.32C20.6965 19.2369 20.7894 19.1271 20.8523 19.0001L23.9998 12.6226L27.1498 19.0001C27.2125 19.1274 27.3052 19.2375 27.4201 19.3209C27.5349 19.4043 27.6683 19.4584 27.8088 19.4786L34.8438 20.5001L29.7498 25.4656Z" fill="#FA8C16"/>
<path d="M24 0.625C19.3769 0.625 14.8576 1.99592 11.0136 4.5644C7.16956 7.13288 4.17353 10.7836 2.40433 15.0548C0.635128 19.326 0.172225 24.0259 1.07415 28.5602C1.97608 33.0945 4.20234 37.2596 7.47139 40.5286C10.7404 43.7977 14.9055 46.0239 19.4398 46.9259C23.9741 47.8278 28.674 47.3649 32.9452 45.5957C37.2165 43.8265 40.8671 40.8305 43.4356 36.9865C46.0041 33.1425 47.375 28.6231 47.375 24C47.3684 17.8026 44.9036 11.8609 40.5213 7.47869C36.1391 3.09646 30.1974 0.631618 24 0.625V0.625ZM24 45.625C19.723 45.625 15.542 44.3567 11.9858 41.9805C8.42959 39.6043 5.65786 36.227 4.02112 32.2755C2.38437 28.3241 1.95612 23.976 2.79053 19.7812C3.62493 15.5863 5.68452 11.7331 8.70883 8.70882C11.7331 5.68451 15.5863 3.62492 19.7812 2.79052C23.976 1.95611 28.3241 2.38436 32.2755 4.0211C36.227 5.65785 39.6044 8.42958 41.9805 11.9858C44.3567 15.542 45.625 19.723 45.625 24C45.6184 29.7333 43.3379 35.2298 39.2839 39.2839C35.2298 43.3379 29.7333 45.6184 24 45.625V45.625Z" fill="#FA8C16"/>
</svg>
