<svg width="48" height="46" viewBox="0 0 48 46" fill="none" xmlns="http://www.w3.org/2000/svg">
<path d="M33.3502 22.5996C33.9002 22.0496 34.8002 22.0496 35.3502 22.5996C35.7002 22.9496 36.2502 22.9496 36.6002 22.5996C36.9502 22.2496 36.9502 21.6996 36.6002 21.3496C35.3502 20.0996 33.4002 20.0996 32.1502 21.3496C31.8002 21.6996 31.8002 22.2496 32.1502 22.5996C32.5002 22.9496 33.0002 22.9496 33.3502 22.5996Z" fill="#FA8C16"/>
<path d="M5.09981 20.8497C3.49981 20.5997 2.34981 19.1997 2.34981 17.5997C2.34981 17.0997 1.9498 16.6997 1.4498 16.6997C0.949804 16.6997 0.549805 17.0997 0.549805 17.5997C0.549805 19.9497 2.1498 21.9497 4.4498 22.4997C2.3498 29.3497 5.49981 36.7497 11.9498 39.9997V44.3497C11.9498 44.8497 12.3498 45.2497 12.8498 45.2497H19.7498C20.2498 45.2497 20.6498 44.8497 20.6498 44.3497V41.4997H27.4498V44.2997C27.4498 44.7997 27.8498 45.1997 28.3498 45.1997H35.2498C35.7498 45.1997 36.1498 44.7997 36.1498 44.2997V40.3997C40.3498 38.6997 43.4998 35.0997 44.6998 30.6997H46.6498C47.1498 30.6997 47.5498 30.2997 47.5498 29.7997V21.9497C47.5498 21.4497 47.1498 21.0497 46.6498 21.0497H44.0998C43.1498 18.8497 41.6998 16.8997 39.8498 15.3997V9.34968C39.8498 8.84968 39.4498 8.49968 38.9498 8.44968H37.9998C35.6498 8.44968 33.5998 10.0497 33.0498 12.3497C31.2998 12.0497 30.1998 12.1497 29.0998 12.1497C30.0498 6.94968 26.5998 1.94968 21.3998 0.999682C15.4998 -0.100319 10.0998 4.44968 10.0998 10.4497C10.0998 11.7997 10.3998 13.1497 10.9498 14.3497C8.29981 15.8497 6.29981 18.1497 5.09981 20.8497ZM19.5498 2.59968C26.3998 2.54968 29.9498 10.7997 25.2498 15.7497C21.8998 15.3997 18.1498 15.6497 14.7998 16.5997C8.8498 12.0497 12.0998 2.59968 19.5498 2.59968ZM11.6498 15.8497C11.9998 16.3497 12.3998 16.8497 12.8498 17.2497C12.3998 17.4497 11.9998 17.6497 11.5998 17.8997C11.1998 18.1497 11.0498 18.6997 11.2998 19.0997C11.5498 19.4997 12.0998 19.6497 12.4998 19.3997C16.2498 17.2997 23.5998 16.7497 27.9998 18.0997C28.4498 18.2497 28.9498 17.9997 29.0998 17.5497C29.2498 17.0997 28.9998 16.5997 28.5498 16.4497C28.1498 16.3497 27.7498 16.1997 27.2998 16.1497C27.7998 15.4497 28.1998 14.7497 28.5498 13.9497C29.9998 13.9997 31.3998 13.7997 33.4998 14.2997C34.0498 14.4497 34.5498 14.0497 34.5998 13.4997C34.6498 11.6997 36.1498 10.2997 37.9498 10.2997H38.0498V15.9497C38.0498 16.1997 38.1998 16.4997 38.3998 16.6497C40.3498 18.1497 41.7998 20.0997 42.6498 22.3997C42.7998 22.7497 43.0998 22.9497 43.4498 22.9497H45.7498V29.0497H43.9998C43.5998 29.0497 43.2498 29.3497 43.1498 29.7497C42.1998 34.0497 39.0998 37.5497 34.9498 39.0497C34.5998 39.1997 34.3998 39.4997 34.3998 39.8497V43.4497H29.1498V40.6497C29.1498 40.1497 28.7498 39.7497 28.2498 39.7497H19.7498C19.2498 39.7497 18.8498 40.1497 18.8498 40.6497V43.4497H13.7498V39.4497C13.7498 39.0997 13.5498 38.7997 13.2498 38.6497C6.69981 35.6497 3.7998 27.9997 6.74981 21.4997C7.79981 19.1497 9.49981 17.1997 11.6498 15.8497Z" fill="#FA8C16"/>
<path d="M19.7 13.1496H19C18.6 13.1496 18.3 12.8496 18.3 12.4496C18.3 11.9496 17.9 11.5496 17.4 11.5496C16.9 11.5496 16.5 11.9496 16.5 12.4496C16.5 13.7996 17.6 14.8996 18.95 14.8996H19.65C21.15 14.8996 22.4 13.6496 22.4 12.1496C22.4 10.9996 21.65 10.0496 20.55 9.74961L18.85 9.34961C18.55 9.29961 18.3 8.99961 18.3 8.64961V8.34961C18.3 7.94961 18.6 7.64961 19 7.64961H20C20.4 7.64961 20.7 7.94961 20.7 8.34961C20.7 8.84961 21.1 9.24961 21.6 9.24961C22.1 9.24961 22.5 8.84961 22.5 8.34961C22.5 7.14961 21.6 6.14961 20.45 5.94961V5.49961C20.45 4.99961 20.05 4.59961 19.55 4.59961C19.05 4.59961 18.65 4.99961 18.65 5.49961V5.94961C17.45 6.14961 16.6 7.14961 16.6 8.34961V8.64961C16.6 9.79961 17.35 10.7496 18.5 11.0496L20.2 11.4496C20.5 11.5496 20.75 11.7996 20.75 12.1496C20.7 12.6996 20.25 13.1496 19.7 13.1496Z" fill="#FA8C16"/>
</svg>
