<svg width="21" height="19" viewBox="0 0 21 19" fill="none" xmlns="http://www.w3.org/2000/svg">
<path d="M18.08 5.5L15.81 3.23C15.88 2.81 15.99 2.42 16.13 2.08C16.21 1.9 16.25 1.71 16.25 1.5C16.25 0.67 15.58 0 14.75 0C13.11 0 11.66 0.79 10.75 2H5.75C2.71 2 0.25 4.46 0.25 7.5C0.25 10.54 2.75 19 2.75 19H8.25V17H10.25V19H15.75L17.43 13.41L20.25 12.47V5.5H18.08ZM11.25 7H6.25V5H11.25V7ZM14.25 9C13.7 9 13.25 8.55 13.25 8C13.25 7.45 13.7 7 14.25 7C14.8 7 15.25 7.45 15.25 8C15.25 8.55 14.8 9 14.25 9Z" fill="#FA8C16"/>
</svg>
